%TF.GenerationSoftware,KiCad,Pcbnew,(6.0.0-0)*%
%TF.CreationDate,2022-04-29T16:53:49+10:00*%
%TF.ProjectId,kicad practice,6b696361-6420-4707-9261-63746963652e,rev?*%
%TF.SameCoordinates,Original*%
%TF.FileFunction,Soldermask,Bot*%
%TF.FilePolarity,Negative*%
%FSLAX46Y46*%
G04 Gerber Fmt 4.6, Leading zero omitted, Abs format (unit mm)*
G04 Created by KiCad (PCBNEW (6.0.0-0)) date 2022-04-29 16:53:49*
%MOMM*%
%LPD*%
G01*
G04 APERTURE LIST*
%ADD10C,0.150000*%
%ADD11C,2.100000*%
%ADD12C,1.600000*%
%ADD13O,1.600000X1.600000*%
G04 APERTURE END LIST*
D10*
X148844000Y-92964000D02*
X148844000Y-98044000D01*
X148844000Y-98044000D02*
X147066000Y-98044000D01*
X147066000Y-98044000D02*
X147066000Y-92964000D01*
X147066000Y-92964000D02*
X148844000Y-92964000D01*
G36*
X148844000Y-98044000D02*
G01*
X147066000Y-98044000D01*
X147066000Y-92964000D01*
X148844000Y-92964000D01*
X148844000Y-98044000D01*
G37*
X148844000Y-98044000D02*
X147066000Y-98044000D01*
X147066000Y-92964000D01*
X148844000Y-92964000D01*
X148844000Y-98044000D01*
X157734000Y-92964000D02*
X157734000Y-98044000D01*
X157734000Y-98044000D02*
X155956000Y-98044000D01*
X155956000Y-98044000D02*
X155956000Y-92964000D01*
X155956000Y-92964000D02*
X157734000Y-92964000D01*
G36*
X157734000Y-98044000D02*
G01*
X155956000Y-98044000D01*
X155956000Y-92964000D01*
X157734000Y-92964000D01*
X157734000Y-98044000D01*
G37*
X157734000Y-98044000D02*
X155956000Y-98044000D01*
X155956000Y-92964000D01*
X157734000Y-92964000D01*
X157734000Y-98044000D01*
X157734000Y-106172000D02*
X157734000Y-111252000D01*
X157734000Y-111252000D02*
X155956000Y-111252000D01*
X155956000Y-111252000D02*
X155956000Y-106172000D01*
X155956000Y-106172000D02*
X157734000Y-106172000D01*
G36*
X157734000Y-111252000D02*
G01*
X155956000Y-111252000D01*
X155956000Y-106172000D01*
X157734000Y-106172000D01*
X157734000Y-111252000D01*
G37*
X157734000Y-111252000D02*
X155956000Y-111252000D01*
X155956000Y-106172000D01*
X157734000Y-106172000D01*
X157734000Y-111252000D01*
X148844000Y-106172000D02*
X148844000Y-111252000D01*
X148844000Y-111252000D02*
X147066000Y-111252000D01*
X147066000Y-111252000D02*
X147066000Y-106172000D01*
X147066000Y-106172000D02*
X148844000Y-106172000D01*
G36*
X148844000Y-111252000D02*
G01*
X147066000Y-111252000D01*
X147066000Y-106172000D01*
X148844000Y-106172000D01*
X148844000Y-111252000D01*
G37*
X148844000Y-111252000D02*
X147066000Y-111252000D01*
X147066000Y-106172000D01*
X148844000Y-106172000D01*
X148844000Y-111252000D01*
X132588000Y-110744000D02*
X127508000Y-110744000D01*
X127508000Y-110744000D02*
X127508000Y-108966000D01*
X127508000Y-108966000D02*
X132588000Y-108966000D01*
X132588000Y-108966000D02*
X132588000Y-110744000D01*
G36*
X132588000Y-110744000D02*
G01*
X127508000Y-110744000D01*
X127508000Y-108966000D01*
X132588000Y-108966000D01*
X132588000Y-110744000D01*
G37*
X132588000Y-110744000D02*
X127508000Y-110744000D01*
X127508000Y-108966000D01*
X132588000Y-108966000D01*
X132588000Y-110744000D01*
X132588000Y-101854000D02*
X127508000Y-101854000D01*
X127508000Y-101854000D02*
X127508000Y-100076000D01*
X127508000Y-100076000D02*
X132588000Y-100076000D01*
X132588000Y-100076000D02*
X132588000Y-101854000D01*
G36*
X132588000Y-101854000D02*
G01*
X127508000Y-101854000D01*
X127508000Y-100076000D01*
X132588000Y-100076000D01*
X132588000Y-101854000D01*
G37*
X132588000Y-101854000D02*
X127508000Y-101854000D01*
X127508000Y-100076000D01*
X132588000Y-100076000D01*
X132588000Y-101854000D01*
D11*
%TO.C,REF\u002A\u002A*%
X143510000Y-108204000D03*
%TD*%
D12*
%TO.C,R1*%
X156972000Y-102108000D03*
D13*
X146812000Y-102108000D03*
%TD*%
D11*
%TO.C,REF\u002A\u002A*%
X143510000Y-96012000D03*
%TD*%
%TO.C,REF\u002A\u002A*%
X135636000Y-100838000D03*
%TD*%
D12*
%TO.C,R2*%
X139065000Y-94615000D03*
D13*
X128905000Y-94615000D03*
%TD*%
M02*
