%TF.GenerationSoftware,KiCad,Pcbnew,(6.0.0-0)*%
%TF.CreationDate,2022-04-29T16:53:49+10:00*%
%TF.ProjectId,kicad practice,6b696361-6420-4707-9261-63746963652e,rev?*%
%TF.SameCoordinates,Original*%
%TF.FileFunction,Copper,L1,Top*%
%TF.FilePolarity,Positive*%
%FSLAX46Y46*%
G04 Gerber Fmt 4.6, Leading zero omitted, Abs format (unit mm)*
G04 Created by KiCad (PCBNEW (6.0.0-0)) date 2022-04-29 16:53:49*
%MOMM*%
%LPD*%
G01*
G04 APERTURE LIST*
%TA.AperFunction,SMDPad,CuDef*%
%ADD10R,0.860000X4.720000*%
%TD*%
%TA.AperFunction,ConnectorPad*%
%ADD11R,1.350000X4.720000*%
%TD*%
%TA.AperFunction,ComponentPad*%
%ADD12C,1.600000*%
%TD*%
%TA.AperFunction,ComponentPad*%
%ADD13O,1.600000X1.600000*%
%TD*%
%TA.AperFunction,SMDPad,CuDef*%
%ADD14R,4.720000X0.860000*%
%TD*%
%TA.AperFunction,ConnectorPad*%
%ADD15R,4.720000X1.350000*%
%TD*%
%TA.AperFunction,SMDPad,CuDef*%
%ADD16R,1.650000X0.760000*%
%TD*%
%TA.AperFunction,ViaPad*%
%ADD17C,0.800000*%
%TD*%
%TA.AperFunction,Conductor*%
%ADD18C,0.250000*%
%TD*%
G04 APERTURE END LIST*
D10*
%TO.P,J2,1,In*%
%TO.N,Net-(J2-Pad1)*%
X152400000Y-95504000D03*
D11*
%TO.P,J2,2,Ext*%
%TO.N,Earth*%
X157325000Y-95504000D03*
X147475000Y-95504000D03*
%TD*%
D12*
%TO.P,R1,1*%
%TO.N,Earth*%
X156972000Y-102108000D03*
D13*
%TO.P,R1,2*%
%TO.N,Net-(R1-Pad2)*%
X146812000Y-102108000D03*
%TD*%
D14*
%TO.P,J3,1,In*%
%TO.N,Net-(J3-Pad1)*%
X130048000Y-105507000D03*
D15*
%TO.P,J3,2,Ext*%
%TO.N,Earth*%
X130048000Y-100582000D03*
X130048000Y-110432000D03*
%TD*%
D16*
%TO.P,T1,1,PR1*%
%TO.N,Net-(J1-Pad1)*%
X144338000Y-103378000D03*
%TO.P,T1,2,PM*%
%TO.N,Net-(R1-Pad2)*%
X144338000Y-102108000D03*
%TO.P,T1,3,PR2*%
%TO.N,Net-(J2-Pad1)*%
X144338000Y-100838000D03*
%TO.P,T1,4,S1*%
%TO.N,Earth*%
X141158000Y-100838000D03*
%TO.P,T1,5,S2*%
%TO.N,Net-(J3-Pad1)*%
X141158000Y-103378000D03*
%TD*%
D12*
%TO.P,R2,1*%
%TO.N,Net-(J3-Pad1)*%
X139065000Y-94615000D03*
D13*
%TO.P,R2,2*%
%TO.N,Earth*%
X128905000Y-94615000D03*
%TD*%
D10*
%TO.P,J1,1,In*%
%TO.N,Net-(J1-Pad1)*%
X152400000Y-108712000D03*
D11*
%TO.P,J1,2,Ext*%
%TO.N,Earth*%
X147475000Y-108712000D03*
X157325000Y-108712000D03*
%TD*%
D17*
%TO.N,Earth*%
X137922000Y-96774000D03*
X137922000Y-98806000D03*
X135890000Y-106680000D03*
X149860000Y-105918000D03*
X134874000Y-106680000D03*
X145796000Y-104902000D03*
X140208000Y-96774000D03*
X137922000Y-104140000D03*
X145796000Y-99314000D03*
X137922000Y-103124000D03*
X133858000Y-106680000D03*
X140208000Y-97790000D03*
X150876000Y-105918000D03*
X139700000Y-106172000D03*
X140208000Y-98806000D03*
X150876000Y-98298000D03*
X137922000Y-106680000D03*
X136906000Y-106680000D03*
X133858000Y-104140000D03*
X134874000Y-104140000D03*
X136906000Y-104140000D03*
X149860000Y-98298000D03*
X135890000Y-104140000D03*
X137922000Y-97790000D03*
X138938000Y-106680000D03*
%TD*%
D18*
%TO.N,Net-(J1-Pad1)*%
X147066000Y-104648000D02*
X152400000Y-104648000D01*
X144338000Y-103378000D02*
X147066000Y-103378000D01*
X152400000Y-104648000D02*
X152400000Y-108712000D01*
X147066000Y-103378000D02*
X147066000Y-104648000D01*
%TO.N,Net-(J2-Pad1)*%
X147066000Y-99568000D02*
X152400000Y-99568000D01*
X147066000Y-100838000D02*
X144338000Y-100838000D01*
X152400000Y-99568000D02*
X152400000Y-95504000D01*
X147066000Y-100838000D02*
X147066000Y-99568000D01*
%TO.N,Net-(J3-Pad1)*%
X139065000Y-103251000D02*
X139065000Y-105283000D01*
X139065000Y-94615000D02*
X139065000Y-103251000D01*
X139065000Y-105283000D02*
X138841000Y-105507000D01*
X139065000Y-103251000D02*
X139192000Y-103378000D01*
X138841000Y-105507000D02*
X130048000Y-105507000D01*
X139192000Y-103378000D02*
X141158000Y-103378000D01*
%TO.N,Net-(R1-Pad2)*%
X146812000Y-102108000D02*
X144338000Y-102108000D01*
%TD*%
%TA.AperFunction,Conductor*%
%TO.N,Earth*%
G36*
X146234121Y-93492002D02*
G01*
X146280614Y-93545658D01*
X146292000Y-93598000D01*
X146292000Y-95231885D01*
X146296475Y-95247124D01*
X146297865Y-95248329D01*
X146305548Y-95250000D01*
X148639884Y-95250000D01*
X148655123Y-95245525D01*
X148656328Y-95244135D01*
X148657999Y-95236452D01*
X148657999Y-93598000D01*
X148678001Y-93529879D01*
X148731657Y-93483386D01*
X148783999Y-93472000D01*
X151335500Y-93472000D01*
X151403621Y-93492002D01*
X151450114Y-93545658D01*
X151461500Y-93598000D01*
X151461500Y-97912134D01*
X151468255Y-97974316D01*
X151519385Y-98110705D01*
X151606739Y-98227261D01*
X151716066Y-98309197D01*
X151758580Y-98366055D01*
X151766500Y-98410022D01*
X151766500Y-98808500D01*
X151746498Y-98876621D01*
X151692842Y-98923114D01*
X151640500Y-98934500D01*
X147137793Y-98934500D01*
X147114184Y-98932268D01*
X147113881Y-98932210D01*
X147113877Y-98932210D01*
X147106094Y-98930725D01*
X147050049Y-98934251D01*
X147042138Y-98934500D01*
X147026144Y-98934500D01*
X147010270Y-98936506D01*
X147002410Y-98937248D01*
X146974951Y-98938976D01*
X146954263Y-98940277D01*
X146954262Y-98940277D01*
X146946350Y-98940775D01*
X146938809Y-98943225D01*
X146938513Y-98943321D01*
X146915369Y-98948494D01*
X146915065Y-98948532D01*
X146915060Y-98948533D01*
X146907203Y-98949526D01*
X146899838Y-98952442D01*
X146899834Y-98952443D01*
X146854989Y-98970199D01*
X146847570Y-98972871D01*
X146794125Y-98990236D01*
X146787429Y-98994486D01*
X146787428Y-98994486D01*
X146787169Y-98994650D01*
X146766042Y-99005415D01*
X146765754Y-99005529D01*
X146765749Y-99005532D01*
X146758383Y-99008448D01*
X146751975Y-99013104D01*
X146751969Y-99013107D01*
X146712948Y-99041458D01*
X146706411Y-99045901D01*
X146658982Y-99076000D01*
X146653556Y-99081778D01*
X146653555Y-99081779D01*
X146653341Y-99082007D01*
X146635554Y-99097688D01*
X146635309Y-99097866D01*
X146635307Y-99097868D01*
X146628893Y-99102528D01*
X146623839Y-99108637D01*
X146623838Y-99108638D01*
X146593097Y-99145796D01*
X146587866Y-99151730D01*
X146554842Y-99186898D01*
X146554840Y-99186901D01*
X146549414Y-99192679D01*
X146545445Y-99199899D01*
X146532119Y-99219506D01*
X146531920Y-99219746D01*
X146531916Y-99219753D01*
X146526867Y-99225856D01*
X146523493Y-99233027D01*
X146502953Y-99276676D01*
X146499371Y-99283708D01*
X146472305Y-99332940D01*
X146470335Y-99340615D01*
X146470332Y-99340621D01*
X146470256Y-99340919D01*
X146462224Y-99363228D01*
X146462094Y-99363503D01*
X146462091Y-99363511D01*
X146458717Y-99370682D01*
X146452191Y-99404895D01*
X146448195Y-99425843D01*
X146446471Y-99433558D01*
X146432500Y-99487970D01*
X146432500Y-99496207D01*
X146430268Y-99519816D01*
X146428725Y-99527906D01*
X146429223Y-99535817D01*
X146432251Y-99583951D01*
X146432500Y-99591862D01*
X146432500Y-100078500D01*
X146412498Y-100146621D01*
X146358842Y-100193114D01*
X146306500Y-100204500D01*
X145671549Y-100204500D01*
X145603428Y-100184498D01*
X145570726Y-100154069D01*
X145526261Y-100094739D01*
X145409705Y-100007385D01*
X145273316Y-99956255D01*
X145211134Y-99949500D01*
X143464866Y-99949500D01*
X143402684Y-99956255D01*
X143266295Y-100007385D01*
X143149739Y-100094739D01*
X143062385Y-100211295D01*
X143011255Y-100347684D01*
X143004500Y-100409866D01*
X143004500Y-101266134D01*
X143011255Y-101328316D01*
X143033480Y-101387599D01*
X143048914Y-101428770D01*
X143054097Y-101499577D01*
X143048916Y-101517225D01*
X143011255Y-101617684D01*
X143004500Y-101679866D01*
X143004500Y-102536134D01*
X143011255Y-102598316D01*
X143024910Y-102634739D01*
X143048914Y-102698770D01*
X143054097Y-102769577D01*
X143048916Y-102787225D01*
X143011255Y-102887684D01*
X143004500Y-102949866D01*
X143004500Y-103806134D01*
X143011255Y-103868316D01*
X143062385Y-104004705D01*
X143149739Y-104121261D01*
X143266295Y-104208615D01*
X143402684Y-104259745D01*
X143464866Y-104266500D01*
X145211134Y-104266500D01*
X145273316Y-104259745D01*
X145409705Y-104208615D01*
X145526261Y-104121261D01*
X145570725Y-104061933D01*
X145627582Y-104019420D01*
X145671549Y-104011500D01*
X146306500Y-104011500D01*
X146374621Y-104031502D01*
X146421114Y-104085158D01*
X146432500Y-104137500D01*
X146432500Y-104576207D01*
X146430268Y-104599816D01*
X146428725Y-104607906D01*
X146430244Y-104632049D01*
X146432251Y-104663951D01*
X146432500Y-104671862D01*
X146432500Y-104687856D01*
X146434506Y-104703730D01*
X146435248Y-104711590D01*
X146438775Y-104767650D01*
X146441225Y-104775191D01*
X146441321Y-104775487D01*
X146446494Y-104798631D01*
X146446532Y-104798935D01*
X146446533Y-104798940D01*
X146447526Y-104806797D01*
X146450442Y-104814162D01*
X146450443Y-104814166D01*
X146468199Y-104859011D01*
X146470871Y-104866430D01*
X146488236Y-104919875D01*
X146492486Y-104926571D01*
X146492486Y-104926572D01*
X146492650Y-104926831D01*
X146503415Y-104947958D01*
X146503529Y-104948246D01*
X146503532Y-104948251D01*
X146506448Y-104955617D01*
X146511104Y-104962025D01*
X146511107Y-104962031D01*
X146539458Y-105001052D01*
X146543901Y-105007589D01*
X146574000Y-105055018D01*
X146579778Y-105060444D01*
X146579779Y-105060445D01*
X146580007Y-105060659D01*
X146595688Y-105078446D01*
X146600528Y-105085107D01*
X146606637Y-105090161D01*
X146606638Y-105090162D01*
X146643796Y-105120903D01*
X146649730Y-105126134D01*
X146684898Y-105159158D01*
X146684901Y-105159160D01*
X146690679Y-105164586D01*
X146697903Y-105168558D01*
X146717506Y-105181881D01*
X146717746Y-105182080D01*
X146717753Y-105182084D01*
X146723856Y-105187133D01*
X146763400Y-105205741D01*
X146774676Y-105211047D01*
X146781708Y-105214629D01*
X146830940Y-105241695D01*
X146838615Y-105243665D01*
X146838621Y-105243668D01*
X146838919Y-105243744D01*
X146861228Y-105251776D01*
X146861503Y-105251906D01*
X146861511Y-105251909D01*
X146868682Y-105255283D01*
X146923849Y-105265806D01*
X146931558Y-105267529D01*
X146965551Y-105276257D01*
X146978293Y-105279529D01*
X146978294Y-105279529D01*
X146985970Y-105281500D01*
X146994207Y-105281500D01*
X147017816Y-105283732D01*
X147018119Y-105283790D01*
X147018123Y-105283790D01*
X147025906Y-105285275D01*
X147081951Y-105281749D01*
X147089862Y-105281500D01*
X151640500Y-105281500D01*
X151708621Y-105301502D01*
X151755114Y-105355158D01*
X151766500Y-105407500D01*
X151766500Y-105805978D01*
X151746498Y-105874099D01*
X151716066Y-105906803D01*
X151606739Y-105988739D01*
X151519385Y-106105295D01*
X151468255Y-106241684D01*
X151461500Y-106303866D01*
X151461500Y-110618000D01*
X151441498Y-110686121D01*
X151387842Y-110732614D01*
X151335500Y-110744000D01*
X148784000Y-110744000D01*
X148715879Y-110723998D01*
X148669386Y-110670342D01*
X148658000Y-110618000D01*
X148658000Y-108984115D01*
X148653525Y-108968876D01*
X148652135Y-108967671D01*
X148644452Y-108966000D01*
X146310116Y-108966000D01*
X146294877Y-108970475D01*
X146293672Y-108971865D01*
X146292001Y-108979548D01*
X146292001Y-110618000D01*
X146271999Y-110686121D01*
X146218343Y-110732614D01*
X146166001Y-110744000D01*
X133022034Y-110744000D01*
X132953913Y-110723998D01*
X132941980Y-110710226D01*
X132939486Y-110713104D01*
X132910135Y-110687671D01*
X132902452Y-110686000D01*
X129920000Y-110686000D01*
X129851879Y-110665998D01*
X129805386Y-110612342D01*
X129794000Y-110560000D01*
X129794000Y-110159885D01*
X130302000Y-110159885D01*
X130306475Y-110175124D01*
X130307865Y-110176329D01*
X130315548Y-110178000D01*
X132897884Y-110178000D01*
X132913123Y-110173525D01*
X132914328Y-110172135D01*
X132915999Y-110164452D01*
X132915999Y-109712331D01*
X132915629Y-109705510D01*
X132910105Y-109654648D01*
X132906479Y-109639396D01*
X132861324Y-109518946D01*
X132852786Y-109503351D01*
X132776285Y-109401276D01*
X132763724Y-109388715D01*
X132661649Y-109312214D01*
X132646054Y-109303676D01*
X132525606Y-109258522D01*
X132510351Y-109254895D01*
X132459486Y-109249369D01*
X132452672Y-109249000D01*
X130320115Y-109249000D01*
X130304876Y-109253475D01*
X130303671Y-109254865D01*
X130302000Y-109262548D01*
X130302000Y-110159885D01*
X129794000Y-110159885D01*
X129794000Y-109267116D01*
X129789525Y-109251877D01*
X129788135Y-109250672D01*
X129780452Y-109249001D01*
X128142000Y-109249001D01*
X128073879Y-109228999D01*
X128027386Y-109175343D01*
X128016000Y-109123001D01*
X128016000Y-108258568D01*
X141947382Y-108258568D01*
X141976208Y-108507699D01*
X141977587Y-108512573D01*
X141977588Y-108512577D01*
X142016526Y-108650181D01*
X142044494Y-108749017D01*
X142046628Y-108753592D01*
X142046630Y-108753599D01*
X142148347Y-108971731D01*
X142150484Y-108976313D01*
X142153326Y-108980494D01*
X142153326Y-108980495D01*
X142288605Y-109179552D01*
X142288608Y-109179556D01*
X142291451Y-109183739D01*
X142294928Y-109187416D01*
X142294929Y-109187417D01*
X142395238Y-109293491D01*
X142463767Y-109365959D01*
X142467793Y-109369037D01*
X142467794Y-109369038D01*
X142658981Y-109515212D01*
X142658985Y-109515215D01*
X142663001Y-109518285D01*
X142884026Y-109636797D01*
X142888807Y-109638443D01*
X142888811Y-109638445D01*
X143103391Y-109712331D01*
X143121156Y-109718448D01*
X143224689Y-109736331D01*
X143364380Y-109760460D01*
X143364386Y-109760461D01*
X143368290Y-109761135D01*
X143372251Y-109761315D01*
X143372252Y-109761315D01*
X143396931Y-109762436D01*
X143396950Y-109762436D01*
X143398350Y-109762500D01*
X143573015Y-109762500D01*
X143575523Y-109762298D01*
X143575528Y-109762298D01*
X143754944Y-109747863D01*
X143754949Y-109747862D01*
X143759985Y-109747457D01*
X143764893Y-109746252D01*
X143764896Y-109746251D01*
X143998625Y-109688841D01*
X144003539Y-109687634D01*
X144008191Y-109685659D01*
X144008195Y-109685658D01*
X144229741Y-109591617D01*
X144229742Y-109591617D01*
X144234396Y-109589641D01*
X144446615Y-109456000D01*
X144634738Y-109290147D01*
X144793924Y-109096351D01*
X144920078Y-108879596D01*
X145009955Y-108645461D01*
X145049467Y-108456329D01*
X145052902Y-108439885D01*
X146292000Y-108439885D01*
X146296475Y-108455124D01*
X146297865Y-108456329D01*
X146305548Y-108458000D01*
X147202885Y-108458000D01*
X147218124Y-108453525D01*
X147219329Y-108452135D01*
X147221000Y-108444452D01*
X147221000Y-108439885D01*
X147729000Y-108439885D01*
X147733475Y-108455124D01*
X147734865Y-108456329D01*
X147742548Y-108458000D01*
X148639884Y-108458000D01*
X148655123Y-108453525D01*
X148656328Y-108452135D01*
X148657999Y-108444452D01*
X148657999Y-106307331D01*
X148657629Y-106300510D01*
X148652105Y-106249648D01*
X148648479Y-106234396D01*
X148603324Y-106113946D01*
X148594786Y-106098351D01*
X148518285Y-105996276D01*
X148505724Y-105983715D01*
X148403649Y-105907214D01*
X148388054Y-105898676D01*
X148267606Y-105853522D01*
X148252351Y-105849895D01*
X148201486Y-105844369D01*
X148194672Y-105844000D01*
X147747115Y-105844000D01*
X147731876Y-105848475D01*
X147730671Y-105849865D01*
X147729000Y-105857548D01*
X147729000Y-108439885D01*
X147221000Y-108439885D01*
X147221000Y-105862116D01*
X147216525Y-105846877D01*
X147215135Y-105845672D01*
X147207452Y-105844001D01*
X146755331Y-105844001D01*
X146748510Y-105844371D01*
X146697648Y-105849895D01*
X146682396Y-105853521D01*
X146561946Y-105898676D01*
X146546351Y-105907214D01*
X146444276Y-105983715D01*
X146431715Y-105996276D01*
X146355214Y-106098351D01*
X146346676Y-106113946D01*
X146301522Y-106234394D01*
X146297895Y-106249649D01*
X146292369Y-106300514D01*
X146292000Y-106307328D01*
X146292000Y-108439885D01*
X145052902Y-108439885D01*
X145060206Y-108404921D01*
X145061241Y-108399967D01*
X145072618Y-108149432D01*
X145043792Y-107900301D01*
X145004810Y-107762539D01*
X144976884Y-107663852D01*
X144976883Y-107663850D01*
X144975506Y-107658983D01*
X144973372Y-107654408D01*
X144973370Y-107654401D01*
X144871653Y-107436269D01*
X144871651Y-107436265D01*
X144869516Y-107431687D01*
X144866674Y-107427505D01*
X144731395Y-107228448D01*
X144731392Y-107228444D01*
X144728549Y-107224261D01*
X144627925Y-107117853D01*
X144559713Y-107045721D01*
X144556233Y-107042041D01*
X144552206Y-107038962D01*
X144361019Y-106892788D01*
X144361015Y-106892785D01*
X144356999Y-106889715D01*
X144135974Y-106771203D01*
X144131193Y-106769557D01*
X144131189Y-106769555D01*
X143903633Y-106691201D01*
X143898844Y-106689552D01*
X143795311Y-106671669D01*
X143655620Y-106647540D01*
X143655614Y-106647539D01*
X143651710Y-106646865D01*
X143647749Y-106646685D01*
X143647748Y-106646685D01*
X143623069Y-106645564D01*
X143623050Y-106645564D01*
X143621650Y-106645500D01*
X143446985Y-106645500D01*
X143444477Y-106645702D01*
X143444472Y-106645702D01*
X143265056Y-106660137D01*
X143265051Y-106660138D01*
X143260015Y-106660543D01*
X143255107Y-106661748D01*
X143255104Y-106661749D01*
X143023326Y-106718680D01*
X143016461Y-106720366D01*
X143011809Y-106722341D01*
X143011805Y-106722342D01*
X142891061Y-106773595D01*
X142785604Y-106818359D01*
X142573385Y-106952000D01*
X142385262Y-107117853D01*
X142226076Y-107311649D01*
X142099922Y-107528404D01*
X142010045Y-107762539D01*
X141958759Y-108008033D01*
X141947382Y-108258568D01*
X128016000Y-108258568D01*
X128016000Y-106571500D01*
X128036002Y-106503379D01*
X128089658Y-106456886D01*
X128142000Y-106445500D01*
X132456134Y-106445500D01*
X132518316Y-106438745D01*
X132654705Y-106387615D01*
X132771261Y-106300261D01*
X132853197Y-106190934D01*
X132910055Y-106148420D01*
X132954022Y-106140500D01*
X138762233Y-106140500D01*
X138773416Y-106141027D01*
X138780909Y-106142702D01*
X138788835Y-106142453D01*
X138788836Y-106142453D01*
X138848986Y-106140562D01*
X138852945Y-106140500D01*
X138880856Y-106140500D01*
X138884791Y-106140003D01*
X138884856Y-106139995D01*
X138896693Y-106139062D01*
X138928951Y-106138048D01*
X138932970Y-106137922D01*
X138940889Y-106137673D01*
X138960343Y-106132021D01*
X138979700Y-106128013D01*
X138991930Y-106126468D01*
X138991931Y-106126468D01*
X138999797Y-106125474D01*
X139007168Y-106122555D01*
X139007170Y-106122555D01*
X139040912Y-106109196D01*
X139052142Y-106105351D01*
X139086983Y-106095229D01*
X139086984Y-106095229D01*
X139094593Y-106093018D01*
X139101412Y-106088985D01*
X139101417Y-106088983D01*
X139112028Y-106082707D01*
X139129776Y-106074012D01*
X139148617Y-106066552D01*
X139184387Y-106040564D01*
X139194307Y-106034048D01*
X139225535Y-106015580D01*
X139225538Y-106015578D01*
X139232362Y-106011542D01*
X139246686Y-105997218D01*
X139261713Y-105984383D01*
X139278107Y-105972472D01*
X139306292Y-105938403D01*
X139314280Y-105929625D01*
X139381789Y-105862116D01*
X139457256Y-105786648D01*
X139465538Y-105779112D01*
X139472018Y-105775000D01*
X139518645Y-105725347D01*
X139521399Y-105722506D01*
X139541135Y-105702770D01*
X139543615Y-105699573D01*
X139551320Y-105690551D01*
X139576159Y-105664100D01*
X139581586Y-105658321D01*
X139585405Y-105651375D01*
X139585407Y-105651372D01*
X139591348Y-105640566D01*
X139602199Y-105624047D01*
X139609758Y-105614301D01*
X139614614Y-105608041D01*
X139617759Y-105600772D01*
X139617762Y-105600768D01*
X139632174Y-105567463D01*
X139637391Y-105556813D01*
X139658695Y-105518060D01*
X139663733Y-105498437D01*
X139670137Y-105479734D01*
X139675033Y-105468420D01*
X139675033Y-105468419D01*
X139678181Y-105461145D01*
X139679420Y-105453322D01*
X139679423Y-105453312D01*
X139685099Y-105417476D01*
X139687505Y-105405856D01*
X139696528Y-105370711D01*
X139696528Y-105370710D01*
X139698500Y-105363030D01*
X139698500Y-105342776D01*
X139700051Y-105323065D01*
X139701980Y-105310886D01*
X139703220Y-105303057D01*
X139699059Y-105259038D01*
X139698500Y-105247181D01*
X139698500Y-104137566D01*
X139718502Y-104069445D01*
X139772158Y-104022952D01*
X139842432Y-104012848D01*
X139907012Y-104042342D01*
X139925326Y-104062001D01*
X139969739Y-104121261D01*
X140086295Y-104208615D01*
X140222684Y-104259745D01*
X140284866Y-104266500D01*
X142031134Y-104266500D01*
X142093316Y-104259745D01*
X142229705Y-104208615D01*
X142346261Y-104121261D01*
X142433615Y-104004705D01*
X142484745Y-103868316D01*
X142491500Y-103806134D01*
X142491500Y-102949866D01*
X142484745Y-102887684D01*
X142433615Y-102751295D01*
X142346261Y-102634739D01*
X142229705Y-102547385D01*
X142093316Y-102496255D01*
X142031134Y-102489500D01*
X140284866Y-102489500D01*
X140222684Y-102496255D01*
X140086295Y-102547385D01*
X139969739Y-102634739D01*
X139964358Y-102641919D01*
X139925326Y-102693999D01*
X139868467Y-102736514D01*
X139797648Y-102741540D01*
X139735355Y-102707480D01*
X139701365Y-102645149D01*
X139698500Y-102618434D01*
X139698500Y-101596732D01*
X139718502Y-101528611D01*
X139772158Y-101482118D01*
X139842432Y-101472014D01*
X139907012Y-101501508D01*
X139925327Y-101521167D01*
X139964719Y-101573728D01*
X139977276Y-101586285D01*
X140079351Y-101662786D01*
X140094946Y-101671324D01*
X140215394Y-101716478D01*
X140230649Y-101720105D01*
X140281514Y-101725631D01*
X140288328Y-101726000D01*
X140885885Y-101726000D01*
X140901124Y-101721525D01*
X140902329Y-101720135D01*
X140904000Y-101712452D01*
X140904000Y-101707884D01*
X141412000Y-101707884D01*
X141416475Y-101723123D01*
X141417865Y-101724328D01*
X141425548Y-101725999D01*
X142027669Y-101725999D01*
X142034490Y-101725629D01*
X142085352Y-101720105D01*
X142100604Y-101716479D01*
X142221054Y-101671324D01*
X142236649Y-101662786D01*
X142338724Y-101586285D01*
X142351285Y-101573724D01*
X142427786Y-101471649D01*
X142436324Y-101456054D01*
X142481478Y-101335606D01*
X142485105Y-101320351D01*
X142490631Y-101269486D01*
X142491000Y-101262672D01*
X142491000Y-101110115D01*
X142486525Y-101094876D01*
X142485135Y-101093671D01*
X142477452Y-101092000D01*
X141430115Y-101092000D01*
X141414876Y-101096475D01*
X141413671Y-101097865D01*
X141412000Y-101105548D01*
X141412000Y-101707884D01*
X140904000Y-101707884D01*
X140904000Y-100565885D01*
X141412000Y-100565885D01*
X141416475Y-100581124D01*
X141417865Y-100582329D01*
X141425548Y-100584000D01*
X142472884Y-100584000D01*
X142488123Y-100579525D01*
X142489328Y-100578135D01*
X142490999Y-100570452D01*
X142490999Y-100413331D01*
X142490629Y-100406510D01*
X142485105Y-100355648D01*
X142481479Y-100340396D01*
X142436324Y-100219946D01*
X142427786Y-100204351D01*
X142351285Y-100102276D01*
X142338724Y-100089715D01*
X142236649Y-100013214D01*
X142221054Y-100004676D01*
X142100606Y-99959522D01*
X142085351Y-99955895D01*
X142034486Y-99950369D01*
X142027672Y-99950000D01*
X141430115Y-99950000D01*
X141414876Y-99954475D01*
X141413671Y-99955865D01*
X141412000Y-99963548D01*
X141412000Y-100565885D01*
X140904000Y-100565885D01*
X140904000Y-99968116D01*
X140899525Y-99952877D01*
X140898135Y-99951672D01*
X140890452Y-99950001D01*
X140288331Y-99950001D01*
X140281510Y-99950371D01*
X140230648Y-99955895D01*
X140215396Y-99959521D01*
X140094946Y-100004676D01*
X140079351Y-100013214D01*
X139977276Y-100089715D01*
X139964719Y-100102272D01*
X139925327Y-100154833D01*
X139868467Y-100197348D01*
X139797649Y-100202374D01*
X139735355Y-100168314D01*
X139701365Y-100105983D01*
X139698500Y-100079268D01*
X139698500Y-97908669D01*
X146292001Y-97908669D01*
X146292371Y-97915490D01*
X146297895Y-97966352D01*
X146301521Y-97981604D01*
X146346676Y-98102054D01*
X146355214Y-98117649D01*
X146431715Y-98219724D01*
X146444276Y-98232285D01*
X146546351Y-98308786D01*
X146561946Y-98317324D01*
X146682394Y-98362478D01*
X146697649Y-98366105D01*
X146748514Y-98371631D01*
X146755328Y-98372000D01*
X147202885Y-98372000D01*
X147218124Y-98367525D01*
X147219329Y-98366135D01*
X147221000Y-98358452D01*
X147221000Y-98353884D01*
X147729000Y-98353884D01*
X147733475Y-98369123D01*
X147734865Y-98370328D01*
X147742548Y-98371999D01*
X148194669Y-98371999D01*
X148201490Y-98371629D01*
X148252352Y-98366105D01*
X148267604Y-98362479D01*
X148388054Y-98317324D01*
X148403649Y-98308786D01*
X148505724Y-98232285D01*
X148518285Y-98219724D01*
X148594786Y-98117649D01*
X148603324Y-98102054D01*
X148648478Y-97981606D01*
X148652105Y-97966351D01*
X148657631Y-97915486D01*
X148658000Y-97908672D01*
X148658000Y-95776115D01*
X148653525Y-95760876D01*
X148652135Y-95759671D01*
X148644452Y-95758000D01*
X147747115Y-95758000D01*
X147731876Y-95762475D01*
X147730671Y-95763865D01*
X147729000Y-95771548D01*
X147729000Y-98353884D01*
X147221000Y-98353884D01*
X147221000Y-95776115D01*
X147216525Y-95760876D01*
X147215135Y-95759671D01*
X147207452Y-95758000D01*
X146310116Y-95758000D01*
X146294877Y-95762475D01*
X146293672Y-95763865D01*
X146292001Y-95771548D01*
X146292001Y-97908669D01*
X139698500Y-97908669D01*
X139698500Y-96066568D01*
X141947382Y-96066568D01*
X141976208Y-96315699D01*
X141977587Y-96320573D01*
X141977588Y-96320577D01*
X142016526Y-96458181D01*
X142044494Y-96557017D01*
X142046628Y-96561592D01*
X142046630Y-96561599D01*
X142148347Y-96779731D01*
X142150484Y-96784313D01*
X142153326Y-96788494D01*
X142153326Y-96788495D01*
X142288605Y-96987552D01*
X142288608Y-96987556D01*
X142291451Y-96991739D01*
X142294928Y-96995416D01*
X142294929Y-96995417D01*
X142395238Y-97101491D01*
X142463767Y-97173959D01*
X142467793Y-97177037D01*
X142467794Y-97177038D01*
X142658981Y-97323212D01*
X142658985Y-97323215D01*
X142663001Y-97326285D01*
X142884026Y-97444797D01*
X142888807Y-97446443D01*
X142888811Y-97446445D01*
X143114538Y-97524169D01*
X143121156Y-97526448D01*
X143224689Y-97544331D01*
X143364380Y-97568460D01*
X143364386Y-97568461D01*
X143368290Y-97569135D01*
X143372251Y-97569315D01*
X143372252Y-97569315D01*
X143396931Y-97570436D01*
X143396950Y-97570436D01*
X143398350Y-97570500D01*
X143573015Y-97570500D01*
X143575523Y-97570298D01*
X143575528Y-97570298D01*
X143754944Y-97555863D01*
X143754949Y-97555862D01*
X143759985Y-97555457D01*
X143764893Y-97554252D01*
X143764896Y-97554251D01*
X143998625Y-97496841D01*
X144003539Y-97495634D01*
X144008191Y-97493659D01*
X144008195Y-97493658D01*
X144229741Y-97399617D01*
X144229742Y-97399617D01*
X144234396Y-97397641D01*
X144446615Y-97264000D01*
X144634738Y-97098147D01*
X144793924Y-96904351D01*
X144920078Y-96687596D01*
X145009955Y-96453461D01*
X145061241Y-96207967D01*
X145072618Y-95957432D01*
X145043792Y-95708301D01*
X145020039Y-95624357D01*
X144976884Y-95471852D01*
X144976883Y-95471850D01*
X144975506Y-95466983D01*
X144973372Y-95462408D01*
X144973370Y-95462401D01*
X144871653Y-95244269D01*
X144871651Y-95244265D01*
X144869516Y-95239687D01*
X144864214Y-95231885D01*
X144731395Y-95036448D01*
X144731392Y-95036444D01*
X144728549Y-95032261D01*
X144627925Y-94925853D01*
X144559713Y-94853721D01*
X144556233Y-94850041D01*
X144539970Y-94837607D01*
X144361019Y-94700788D01*
X144361015Y-94700785D01*
X144356999Y-94697715D01*
X144135974Y-94579203D01*
X144131193Y-94577557D01*
X144131189Y-94577555D01*
X143903633Y-94499201D01*
X143898844Y-94497552D01*
X143795311Y-94479669D01*
X143655620Y-94455540D01*
X143655614Y-94455539D01*
X143651710Y-94454865D01*
X143647749Y-94454685D01*
X143647748Y-94454685D01*
X143623069Y-94453564D01*
X143623050Y-94453564D01*
X143621650Y-94453500D01*
X143446985Y-94453500D01*
X143444477Y-94453702D01*
X143444472Y-94453702D01*
X143265056Y-94468137D01*
X143265051Y-94468138D01*
X143260015Y-94468543D01*
X143255107Y-94469748D01*
X143255104Y-94469749D01*
X143023326Y-94526680D01*
X143016461Y-94528366D01*
X143011809Y-94530341D01*
X143011805Y-94530342D01*
X142891061Y-94581595D01*
X142785604Y-94626359D01*
X142573385Y-94760000D01*
X142385262Y-94925853D01*
X142226076Y-95119649D01*
X142099922Y-95336404D01*
X142010045Y-95570539D01*
X142009012Y-95575485D01*
X142009010Y-95575491D01*
X141970282Y-95760876D01*
X141958759Y-95816033D01*
X141958530Y-95821082D01*
X141958529Y-95821088D01*
X141955125Y-95896058D01*
X141947382Y-96066568D01*
X139698500Y-96066568D01*
X139698500Y-95834394D01*
X139718502Y-95766273D01*
X139752229Y-95731181D01*
X139904789Y-95624357D01*
X139904792Y-95624355D01*
X139909300Y-95621198D01*
X140071198Y-95459300D01*
X140202523Y-95271749D01*
X140204846Y-95266767D01*
X140204849Y-95266762D01*
X140296961Y-95069225D01*
X140296961Y-95069224D01*
X140299284Y-95064243D01*
X140347970Y-94882548D01*
X140357119Y-94848402D01*
X140357119Y-94848400D01*
X140358543Y-94843087D01*
X140378498Y-94615000D01*
X140358543Y-94386913D01*
X140357119Y-94381598D01*
X140300707Y-94171067D01*
X140300706Y-94171065D01*
X140299284Y-94165757D01*
X140204966Y-93963489D01*
X140204849Y-93963238D01*
X140204846Y-93963233D01*
X140202523Y-93958251D01*
X140071198Y-93770700D01*
X139987593Y-93687095D01*
X139953567Y-93624783D01*
X139958632Y-93553968D01*
X140001179Y-93497132D01*
X140067699Y-93472321D01*
X140076688Y-93472000D01*
X146166000Y-93472000D01*
X146234121Y-93492002D01*
G37*
%TD.AperFunction*%
%TA.AperFunction,Conductor*%
G36*
X156084121Y-93492002D02*
G01*
X156130614Y-93545658D01*
X156142000Y-93598000D01*
X156142000Y-95231885D01*
X156146475Y-95247124D01*
X156147865Y-95248329D01*
X156155548Y-95250000D01*
X157453000Y-95250000D01*
X157521121Y-95270002D01*
X157567614Y-95323658D01*
X157579000Y-95376000D01*
X157579000Y-98353884D01*
X157583475Y-98369123D01*
X157584865Y-98370328D01*
X157592548Y-98371999D01*
X157608000Y-98371999D01*
X157676121Y-98392001D01*
X157722614Y-98445657D01*
X157734000Y-98497999D01*
X157734000Y-100822328D01*
X157713998Y-100890449D01*
X157660342Y-100936942D01*
X157590068Y-100947046D01*
X157554750Y-100936523D01*
X157426053Y-100876510D01*
X157415761Y-100872764D01*
X157205312Y-100816375D01*
X157194519Y-100814472D01*
X156977475Y-100795483D01*
X156966525Y-100795483D01*
X156749481Y-100814472D01*
X156738688Y-100816375D01*
X156528239Y-100872764D01*
X156517947Y-100876510D01*
X156320489Y-100968586D01*
X156310994Y-100974069D01*
X156258952Y-101010509D01*
X156250576Y-101020988D01*
X156257644Y-101034434D01*
X157242115Y-102018905D01*
X157276141Y-102081217D01*
X157271076Y-102152032D01*
X157242115Y-102197095D01*
X156256923Y-103182287D01*
X156250493Y-103194062D01*
X156259789Y-103206077D01*
X156310994Y-103241931D01*
X156320489Y-103247414D01*
X156517947Y-103339490D01*
X156528239Y-103343236D01*
X156738688Y-103399625D01*
X156749481Y-103401528D01*
X156966525Y-103420517D01*
X156977475Y-103420517D01*
X157194519Y-103401528D01*
X157205312Y-103399625D01*
X157415761Y-103343236D01*
X157426053Y-103339490D01*
X157554750Y-103279477D01*
X157624941Y-103268816D01*
X157689754Y-103297796D01*
X157728611Y-103357215D01*
X157734000Y-103393672D01*
X157734000Y-105718000D01*
X157713998Y-105786121D01*
X157660342Y-105832614D01*
X157608000Y-105844000D01*
X157597115Y-105844000D01*
X157581876Y-105848475D01*
X157580671Y-105849865D01*
X157579000Y-105857548D01*
X157579000Y-108840000D01*
X157558998Y-108908121D01*
X157505342Y-108954614D01*
X157453000Y-108966000D01*
X156160116Y-108966000D01*
X156144877Y-108970475D01*
X156143672Y-108971865D01*
X156142001Y-108979548D01*
X156142001Y-110618000D01*
X156121999Y-110686121D01*
X156068343Y-110732614D01*
X156016001Y-110744000D01*
X153464500Y-110744000D01*
X153396379Y-110723998D01*
X153349886Y-110670342D01*
X153338500Y-110618000D01*
X153338500Y-108439885D01*
X156142000Y-108439885D01*
X156146475Y-108455124D01*
X156147865Y-108456329D01*
X156155548Y-108458000D01*
X157052885Y-108458000D01*
X157068124Y-108453525D01*
X157069329Y-108452135D01*
X157071000Y-108444452D01*
X157071000Y-105862116D01*
X157066525Y-105846877D01*
X157065135Y-105845672D01*
X157057452Y-105844001D01*
X156605331Y-105844001D01*
X156598510Y-105844371D01*
X156547648Y-105849895D01*
X156532396Y-105853521D01*
X156411946Y-105898676D01*
X156396351Y-105907214D01*
X156294276Y-105983715D01*
X156281715Y-105996276D01*
X156205214Y-106098351D01*
X156196676Y-106113946D01*
X156151522Y-106234394D01*
X156147895Y-106249649D01*
X156142369Y-106300514D01*
X156142000Y-106307328D01*
X156142000Y-108439885D01*
X153338500Y-108439885D01*
X153338500Y-106303866D01*
X153331745Y-106241684D01*
X153280615Y-106105295D01*
X153193261Y-105988739D01*
X153083934Y-105906803D01*
X153041420Y-105849945D01*
X153033500Y-105805978D01*
X153033500Y-104719793D01*
X153035732Y-104696184D01*
X153035790Y-104695881D01*
X153035790Y-104695877D01*
X153037275Y-104688094D01*
X153033749Y-104632049D01*
X153033500Y-104624138D01*
X153033500Y-104608144D01*
X153031494Y-104592270D01*
X153030751Y-104584402D01*
X153027723Y-104536263D01*
X153027723Y-104536262D01*
X153027225Y-104528350D01*
X153024679Y-104520513D01*
X153019506Y-104497369D01*
X153019468Y-104497065D01*
X153019467Y-104497060D01*
X153018474Y-104489203D01*
X153015558Y-104481838D01*
X153015557Y-104481834D01*
X152997801Y-104436989D01*
X152995129Y-104429570D01*
X152977764Y-104376125D01*
X152973514Y-104369428D01*
X152973350Y-104369169D01*
X152962585Y-104348042D01*
X152962471Y-104347754D01*
X152962468Y-104347749D01*
X152959552Y-104340383D01*
X152954896Y-104333975D01*
X152954893Y-104333969D01*
X152926542Y-104294948D01*
X152922092Y-104288401D01*
X152892000Y-104240982D01*
X152885993Y-104235341D01*
X152870312Y-104217554D01*
X152870134Y-104217309D01*
X152870132Y-104217307D01*
X152865472Y-104210893D01*
X152856208Y-104203229D01*
X152822204Y-104175097D01*
X152816270Y-104169866D01*
X152781102Y-104136842D01*
X152781099Y-104136840D01*
X152775321Y-104131414D01*
X152768097Y-104127442D01*
X152748494Y-104114119D01*
X152748254Y-104113920D01*
X152748247Y-104113916D01*
X152742144Y-104108867D01*
X152702600Y-104090259D01*
X152691324Y-104084953D01*
X152684292Y-104081371D01*
X152635060Y-104054305D01*
X152627385Y-104052335D01*
X152627379Y-104052332D01*
X152627081Y-104052256D01*
X152604772Y-104044224D01*
X152604497Y-104044094D01*
X152604489Y-104044091D01*
X152597318Y-104040717D01*
X152542151Y-104030194D01*
X152534442Y-104028471D01*
X152499192Y-104019420D01*
X152487707Y-104016471D01*
X152487706Y-104016471D01*
X152480030Y-104014500D01*
X152471793Y-104014500D01*
X152448184Y-104012268D01*
X152447881Y-104012210D01*
X152447877Y-104012210D01*
X152440094Y-104010725D01*
X152384049Y-104014251D01*
X152376138Y-104014500D01*
X147825500Y-104014500D01*
X147757379Y-103994498D01*
X147710886Y-103940842D01*
X147699500Y-103888500D01*
X147699500Y-103449793D01*
X147701732Y-103426184D01*
X147701790Y-103425881D01*
X147701790Y-103425877D01*
X147703275Y-103418094D01*
X147699749Y-103362049D01*
X147699500Y-103354138D01*
X147699500Y-103338144D01*
X147697494Y-103322270D01*
X147696751Y-103314402D01*
X147695707Y-103297796D01*
X147694554Y-103279477D01*
X147693723Y-103266263D01*
X147693723Y-103266262D01*
X147693225Y-103258350D01*
X147690679Y-103250513D01*
X147685506Y-103227369D01*
X147685468Y-103227065D01*
X147685467Y-103227060D01*
X147684474Y-103219203D01*
X147677170Y-103200755D01*
X147670688Y-103130056D01*
X147705225Y-103065273D01*
X147818198Y-102952300D01*
X147949523Y-102764749D01*
X147951846Y-102759767D01*
X147951849Y-102759762D01*
X148043961Y-102562225D01*
X148043961Y-102562224D01*
X148046284Y-102557243D01*
X148048926Y-102547385D01*
X148104119Y-102341402D01*
X148104119Y-102341400D01*
X148105543Y-102336087D01*
X148125019Y-102113475D01*
X155659483Y-102113475D01*
X155678472Y-102330519D01*
X155680375Y-102341312D01*
X155736764Y-102551761D01*
X155740510Y-102562053D01*
X155832586Y-102759511D01*
X155838069Y-102769006D01*
X155874509Y-102821048D01*
X155884988Y-102829424D01*
X155898434Y-102822356D01*
X156599978Y-102120812D01*
X156607592Y-102106868D01*
X156607461Y-102105035D01*
X156603210Y-102098420D01*
X155897713Y-101392923D01*
X155885938Y-101386493D01*
X155873923Y-101395789D01*
X155838069Y-101446994D01*
X155832586Y-101456489D01*
X155740510Y-101653947D01*
X155736764Y-101664239D01*
X155680375Y-101874688D01*
X155678472Y-101885481D01*
X155659483Y-102102525D01*
X155659483Y-102113475D01*
X148125019Y-102113475D01*
X148125498Y-102108000D01*
X148105543Y-101879913D01*
X148089869Y-101821417D01*
X148047707Y-101664067D01*
X148047706Y-101664065D01*
X148046284Y-101658757D01*
X148030676Y-101625285D01*
X147951849Y-101456238D01*
X147951846Y-101456233D01*
X147949523Y-101451251D01*
X147849558Y-101308486D01*
X147821357Y-101268211D01*
X147821355Y-101268208D01*
X147818198Y-101263700D01*
X147706623Y-101152125D01*
X147672597Y-101089813D01*
X147675303Y-101035704D01*
X147673283Y-101035319D01*
X147683805Y-100980157D01*
X147685532Y-100972429D01*
X147697529Y-100925707D01*
X147697529Y-100925706D01*
X147699500Y-100918030D01*
X147699500Y-100909793D01*
X147701732Y-100886184D01*
X147701790Y-100885881D01*
X147701790Y-100885877D01*
X147703275Y-100878094D01*
X147699749Y-100822049D01*
X147699500Y-100814138D01*
X147699500Y-100327500D01*
X147719502Y-100259379D01*
X147773158Y-100212886D01*
X147825500Y-100201500D01*
X152328207Y-100201500D01*
X152351816Y-100203732D01*
X152352119Y-100203790D01*
X152352123Y-100203790D01*
X152359906Y-100205275D01*
X152415951Y-100201749D01*
X152423862Y-100201500D01*
X152439856Y-100201500D01*
X152455730Y-100199494D01*
X152463590Y-100198752D01*
X152491049Y-100197024D01*
X152511737Y-100195723D01*
X152511738Y-100195723D01*
X152519650Y-100195225D01*
X152527191Y-100192775D01*
X152527487Y-100192679D01*
X152550631Y-100187506D01*
X152550935Y-100187468D01*
X152550940Y-100187467D01*
X152558797Y-100186474D01*
X152566162Y-100183558D01*
X152566166Y-100183557D01*
X152611011Y-100165801D01*
X152618430Y-100163129D01*
X152671875Y-100145764D01*
X152678572Y-100141514D01*
X152678831Y-100141350D01*
X152699958Y-100130585D01*
X152700246Y-100130471D01*
X152700251Y-100130468D01*
X152707617Y-100127552D01*
X152714025Y-100122896D01*
X152714031Y-100122893D01*
X152753052Y-100094542D01*
X152759589Y-100090099D01*
X152807018Y-100060000D01*
X152812659Y-100053993D01*
X152830446Y-100038312D01*
X152830691Y-100038134D01*
X152830693Y-100038132D01*
X152837107Y-100033472D01*
X152842162Y-100027362D01*
X152872903Y-99990204D01*
X152878134Y-99984270D01*
X152911158Y-99949102D01*
X152911160Y-99949099D01*
X152916586Y-99943321D01*
X152920558Y-99936097D01*
X152933881Y-99916494D01*
X152934080Y-99916254D01*
X152934084Y-99916247D01*
X152939133Y-99910144D01*
X152963047Y-99859324D01*
X152966629Y-99852292D01*
X152993695Y-99803060D01*
X152995665Y-99795385D01*
X152995668Y-99795379D01*
X152995744Y-99795081D01*
X153003776Y-99772772D01*
X153003906Y-99772497D01*
X153003909Y-99772489D01*
X153007283Y-99765318D01*
X153017806Y-99710151D01*
X153019532Y-99702429D01*
X153031529Y-99655707D01*
X153031529Y-99655706D01*
X153033500Y-99648030D01*
X153033500Y-99639793D01*
X153035732Y-99616184D01*
X153035790Y-99615881D01*
X153035790Y-99615877D01*
X153037275Y-99608094D01*
X153033749Y-99552049D01*
X153033500Y-99544138D01*
X153033500Y-98410022D01*
X153053502Y-98341901D01*
X153083934Y-98309197D01*
X153193261Y-98227261D01*
X153280615Y-98110705D01*
X153331745Y-97974316D01*
X153338500Y-97912134D01*
X153338500Y-97908669D01*
X156142001Y-97908669D01*
X156142371Y-97915490D01*
X156147895Y-97966352D01*
X156151521Y-97981604D01*
X156196676Y-98102054D01*
X156205214Y-98117649D01*
X156281715Y-98219724D01*
X156294276Y-98232285D01*
X156396351Y-98308786D01*
X156411946Y-98317324D01*
X156532394Y-98362478D01*
X156547649Y-98366105D01*
X156598514Y-98371631D01*
X156605328Y-98372000D01*
X157052885Y-98372000D01*
X157068124Y-98367525D01*
X157069329Y-98366135D01*
X157071000Y-98358452D01*
X157071000Y-95776115D01*
X157066525Y-95760876D01*
X157065135Y-95759671D01*
X157057452Y-95758000D01*
X156160116Y-95758000D01*
X156144877Y-95762475D01*
X156143672Y-95763865D01*
X156142001Y-95771548D01*
X156142001Y-97908669D01*
X153338500Y-97908669D01*
X153338500Y-93598000D01*
X153358502Y-93529879D01*
X153412158Y-93483386D01*
X153464500Y-93472000D01*
X156016000Y-93472000D01*
X156084121Y-93492002D01*
G37*
%TD.AperFunction*%
%TA.AperFunction,Conductor*%
G36*
X138121433Y-93492002D02*
G01*
X138167926Y-93545658D01*
X138178030Y-93615932D01*
X138148536Y-93680512D01*
X138142407Y-93687095D01*
X138058802Y-93770700D01*
X137927477Y-93958251D01*
X137925154Y-93963233D01*
X137925151Y-93963238D01*
X137925034Y-93963489D01*
X137830716Y-94165757D01*
X137829294Y-94171065D01*
X137829293Y-94171067D01*
X137772881Y-94381598D01*
X137771457Y-94386913D01*
X137751502Y-94615000D01*
X137771457Y-94843087D01*
X137772881Y-94848400D01*
X137772881Y-94848402D01*
X137782031Y-94882548D01*
X137830716Y-95064243D01*
X137833039Y-95069224D01*
X137833039Y-95069225D01*
X137925151Y-95266762D01*
X137925154Y-95266767D01*
X137927477Y-95271749D01*
X138058802Y-95459300D01*
X138220700Y-95621198D01*
X138225208Y-95624355D01*
X138225211Y-95624357D01*
X138377771Y-95731181D01*
X138422099Y-95786638D01*
X138431500Y-95834394D01*
X138431500Y-103172233D01*
X138430973Y-103183416D01*
X138429298Y-103190909D01*
X138429547Y-103198835D01*
X138429547Y-103198836D01*
X138431438Y-103258986D01*
X138431500Y-103262945D01*
X138431500Y-104747500D01*
X138411498Y-104815621D01*
X138357842Y-104862114D01*
X138305500Y-104873500D01*
X132954022Y-104873500D01*
X132885901Y-104853498D01*
X132853196Y-104823065D01*
X132817539Y-104775487D01*
X132771261Y-104713739D01*
X132654705Y-104626385D01*
X132518316Y-104575255D01*
X132456134Y-104568500D01*
X128142000Y-104568500D01*
X128073879Y-104548498D01*
X128027386Y-104494842D01*
X128016000Y-104442500D01*
X128016000Y-101891000D01*
X128036002Y-101822879D01*
X128089658Y-101776386D01*
X128142000Y-101765000D01*
X129775885Y-101765000D01*
X129791124Y-101760525D01*
X129792329Y-101759135D01*
X129794000Y-101751452D01*
X129794000Y-101746884D01*
X130302000Y-101746884D01*
X130306475Y-101762123D01*
X130307865Y-101763328D01*
X130315548Y-101764999D01*
X132452669Y-101764999D01*
X132459490Y-101764629D01*
X132510352Y-101759105D01*
X132525604Y-101755479D01*
X132646054Y-101710324D01*
X132661649Y-101701786D01*
X132763724Y-101625285D01*
X132776285Y-101612724D01*
X132852786Y-101510649D01*
X132861324Y-101495054D01*
X132906478Y-101374606D01*
X132910105Y-101359351D01*
X132915631Y-101308486D01*
X132916000Y-101301672D01*
X132916000Y-100892568D01*
X134073382Y-100892568D01*
X134102208Y-101141699D01*
X134103587Y-101146573D01*
X134103588Y-101146577D01*
X134149404Y-101308486D01*
X134170494Y-101383017D01*
X134172628Y-101387592D01*
X134172630Y-101387599D01*
X134270151Y-101596732D01*
X134276484Y-101610313D01*
X134279326Y-101614494D01*
X134279326Y-101614495D01*
X134414605Y-101813552D01*
X134414608Y-101813556D01*
X134417451Y-101817739D01*
X134420928Y-101821416D01*
X134420929Y-101821417D01*
X134521238Y-101927491D01*
X134589767Y-101999959D01*
X134593793Y-102003037D01*
X134593794Y-102003038D01*
X134784981Y-102149212D01*
X134784985Y-102149215D01*
X134789001Y-102152285D01*
X135010026Y-102270797D01*
X135014807Y-102272443D01*
X135014811Y-102272445D01*
X135214815Y-102341312D01*
X135247156Y-102352448D01*
X135350689Y-102370331D01*
X135490380Y-102394460D01*
X135490386Y-102394461D01*
X135494290Y-102395135D01*
X135498251Y-102395315D01*
X135498252Y-102395315D01*
X135522931Y-102396436D01*
X135522950Y-102396436D01*
X135524350Y-102396500D01*
X135699015Y-102396500D01*
X135701523Y-102396298D01*
X135701528Y-102396298D01*
X135880944Y-102381863D01*
X135880949Y-102381862D01*
X135885985Y-102381457D01*
X135890893Y-102380252D01*
X135890896Y-102380251D01*
X136124625Y-102322841D01*
X136129539Y-102321634D01*
X136134191Y-102319659D01*
X136134195Y-102319658D01*
X136355741Y-102225617D01*
X136355742Y-102225617D01*
X136360396Y-102223641D01*
X136535337Y-102113475D01*
X136568334Y-102092696D01*
X136568335Y-102092695D01*
X136572615Y-102090000D01*
X136760738Y-101924147D01*
X136919924Y-101730351D01*
X137046078Y-101513596D01*
X137051460Y-101499577D01*
X137134143Y-101284181D01*
X137135955Y-101279461D01*
X137138030Y-101269531D01*
X137186206Y-101038921D01*
X137187241Y-101033967D01*
X137187831Y-101020988D01*
X137193758Y-100890449D01*
X137198618Y-100783432D01*
X137169792Y-100534301D01*
X137135548Y-100413283D01*
X137102884Y-100297852D01*
X137102883Y-100297850D01*
X137101506Y-100292983D01*
X137099372Y-100288408D01*
X137099370Y-100288401D01*
X136997653Y-100070269D01*
X136997651Y-100070265D01*
X136995516Y-100065687D01*
X136923366Y-99959522D01*
X136857395Y-99862448D01*
X136857392Y-99862444D01*
X136854549Y-99858261D01*
X136773707Y-99772772D01*
X136685713Y-99679721D01*
X136682233Y-99676041D01*
X136619245Y-99627883D01*
X136487019Y-99526788D01*
X136487015Y-99526785D01*
X136482999Y-99523715D01*
X136476293Y-99520119D01*
X136266435Y-99407595D01*
X136261974Y-99405203D01*
X136257193Y-99403557D01*
X136257189Y-99403555D01*
X136029633Y-99325201D01*
X136024844Y-99323552D01*
X135921311Y-99305669D01*
X135781620Y-99281540D01*
X135781614Y-99281539D01*
X135777710Y-99280865D01*
X135773749Y-99280685D01*
X135773748Y-99280685D01*
X135749069Y-99279564D01*
X135749050Y-99279564D01*
X135747650Y-99279500D01*
X135572985Y-99279500D01*
X135570477Y-99279702D01*
X135570472Y-99279702D01*
X135391056Y-99294137D01*
X135391051Y-99294138D01*
X135386015Y-99294543D01*
X135381107Y-99295748D01*
X135381104Y-99295749D01*
X135257958Y-99325997D01*
X135142461Y-99354366D01*
X135137809Y-99356341D01*
X135137805Y-99356342D01*
X134916259Y-99450383D01*
X134911604Y-99452359D01*
X134699385Y-99586000D01*
X134511262Y-99751853D01*
X134352076Y-99945649D01*
X134225922Y-100162404D01*
X134224109Y-100167127D01*
X134224108Y-100167129D01*
X134203927Y-100219703D01*
X134136045Y-100396539D01*
X134135012Y-100401485D01*
X134135010Y-100401491D01*
X134097483Y-100581124D01*
X134084759Y-100642033D01*
X134073382Y-100892568D01*
X132916000Y-100892568D01*
X132916000Y-100854115D01*
X132911525Y-100838876D01*
X132910135Y-100837671D01*
X132902452Y-100836000D01*
X130320115Y-100836000D01*
X130304876Y-100840475D01*
X130303671Y-100841865D01*
X130302000Y-100849548D01*
X130302000Y-101746884D01*
X129794000Y-101746884D01*
X129794000Y-100309885D01*
X130302000Y-100309885D01*
X130306475Y-100325124D01*
X130307865Y-100326329D01*
X130315548Y-100328000D01*
X132897884Y-100328000D01*
X132913123Y-100323525D01*
X132914328Y-100322135D01*
X132915999Y-100314452D01*
X132915999Y-99862331D01*
X132915629Y-99855510D01*
X132910105Y-99804648D01*
X132906479Y-99789396D01*
X132861324Y-99668946D01*
X132852786Y-99653351D01*
X132776285Y-99551276D01*
X132763724Y-99538715D01*
X132661649Y-99462214D01*
X132646054Y-99453676D01*
X132525606Y-99408522D01*
X132510351Y-99404895D01*
X132459486Y-99399369D01*
X132452672Y-99399000D01*
X130320115Y-99399000D01*
X130304876Y-99403475D01*
X130303671Y-99404865D01*
X130302000Y-99412548D01*
X130302000Y-100309885D01*
X129794000Y-100309885D01*
X129794000Y-99417116D01*
X129789525Y-99401877D01*
X129788135Y-99400672D01*
X129780452Y-99399001D01*
X128142000Y-99399001D01*
X128073879Y-99378999D01*
X128027386Y-99325343D01*
X128016000Y-99273001D01*
X128016000Y-95831332D01*
X128036002Y-95763211D01*
X128089658Y-95716718D01*
X128159932Y-95706614D01*
X128214271Y-95728119D01*
X128243994Y-95748931D01*
X128253489Y-95754414D01*
X128450947Y-95846490D01*
X128461239Y-95850236D01*
X128633503Y-95896394D01*
X128647599Y-95896058D01*
X128651000Y-95888116D01*
X128651000Y-95882967D01*
X129159000Y-95882967D01*
X129162973Y-95896498D01*
X129171522Y-95897727D01*
X129348761Y-95850236D01*
X129359053Y-95846490D01*
X129556511Y-95754414D01*
X129566007Y-95748931D01*
X129744467Y-95623972D01*
X129752875Y-95616916D01*
X129906916Y-95462875D01*
X129913972Y-95454467D01*
X130038931Y-95276007D01*
X130044414Y-95266511D01*
X130136490Y-95069053D01*
X130140236Y-95058761D01*
X130186394Y-94886497D01*
X130186058Y-94872401D01*
X130178116Y-94869000D01*
X129177115Y-94869000D01*
X129161876Y-94873475D01*
X129160671Y-94874865D01*
X129159000Y-94882548D01*
X129159000Y-95882967D01*
X128651000Y-95882967D01*
X128651000Y-94487000D01*
X128671002Y-94418879D01*
X128724658Y-94372386D01*
X128777000Y-94361000D01*
X130172967Y-94361000D01*
X130186498Y-94357027D01*
X130187727Y-94348478D01*
X130140236Y-94171239D01*
X130136490Y-94160947D01*
X130044414Y-93963489D01*
X130038931Y-93953993D01*
X129913972Y-93775533D01*
X129906916Y-93767125D01*
X129826886Y-93687095D01*
X129792860Y-93624783D01*
X129797925Y-93553968D01*
X129840472Y-93497132D01*
X129906992Y-93472321D01*
X129915981Y-93472000D01*
X138053312Y-93472000D01*
X138121433Y-93492002D01*
G37*
%TD.AperFunction*%
%TD*%
M02*
