M48
INCH,TZ
T1C0.0157
T2C0.0315
%
G90
G05
T1
X52700Y-41000
X52700Y-42000
X53100Y-41000
X53100Y-42000
X53500Y-41000
X53500Y-42000
X53900Y-41000
X53900Y-42000
X54300Y-38100
X54300Y-38500
X54300Y-38900
X54300Y-40600
X54300Y-41000
X54300Y-42000
X54700Y-42000
X55000Y-41800
X55200Y-38100
X55200Y-38500
X55200Y-38900
X57400Y-39100
X57400Y-41300
X59000Y-38700
X59000Y-41700
X59400Y-38700
X59400Y-41700
T2
X50750Y-37250
X54750Y-37250
X57800Y-40200
X61800Y-40200
T0
M30
